<?xml version="1.0" standalone="no"?>
<!DOCTYPE svg PUBLIC "-//W3C//DTD SVG 20010904//EN"
 "http://www.w3.org/TR/2001/REC-SVG-20010904/DTD/svg10.dtd">
<svg version="1.0" xmlns="http://www.w3.org/2000/svg"
 width="512.000000pt" height="512.000000pt" viewBox="0 0 512.000000 512.000000"
 preserveAspectRatio="xMidYMid meet">
<metadata>
Created by potrace 1.14, written by Peter Selinger 2001-2017
</metadata>
<g transform="translate(0.000000,512.000000) scale(0.100000,-0.100000)"
fill="#000000" stroke="none">
<path d="M2378 5115 c-1 -1 -39 -5 -82 -9 -44 -4 -82 -9 -85 -11 -4 -2 -34 -7
-66 -10 -123 -15 -391 -89 -553 -154 -72 -29 -276 -131 -329 -164 -24 -15 -45
-27 -47 -27 -20 0 -274 -192 -365 -275 -417 -380 -696 -867 -800 -1398 -40
-202 -46 -268 -45 -517 0 -183 3 -241 19 -345 3 -16 7 -43 9 -60 3 -24 34
-175 51 -245 2 -8 18 -60 35 -115 177 -554 534 -1028 1020 -1355 111 -75 247
-150 363 -201 50 -22 101 -45 112 -50 11 -5 81 -29 155 -53 164 -54 340 -91
530 -113 85 -10 427 -10 510 -1 96 11 153 19 175 23 134 25 195 39 280 64 786
228 1408 805 1697 1576 16 44 32 87 34 95 33 118 74 279 78 308 4 20 8 46 10
57 2 11 7 45 11 75 3 30 9 66 11 80 3 14 7 117 8 230 4 273 -21 483 -86 720
-157 573 -535 1102 -1023 1432 -320 216 -624 339 -1020 412 -16 4 -52 8 -80
11 -27 3 -61 9 -75 12 -26 6 -446 14 -452 8z"/>
</g>
</svg>
